<?xml version="1.0" encoding="UTF-8"?>
<svg xmlns="http://www.w3.org/2000/svg" xmlns:xlink="http://www.w3.org/1999/xlink" clip-rule="evenodd" stroke-miterlimit="10" viewBox="0 0 1468.00 990.00">
    <desc>SVG generated by Lineform</desc>
    <defs/>
    <g>
        <g/>
        <path d="M 908.49 39.65 C 924.29 38.05 940.34 38.32 956.00 41.15 C 972.47 44.26 988.59 50.79 1001.41 61.77 C 1014.08 72.50 1022.84 87.26 1028.11 102.88 C 1032.38 114.73 1033.90 127.61 1040.51 138.55 C 1056.13 165.64 1080.23 186.68 1105.60 204.41 C 1121.02 214.24 1133.99 227.30 1146.79 240.23 C 1172.73 267.06 1197.13 295.33 1221.20 323.83 C 1256.74 366.06 1291.29 409.11 1325.35 452.53 C 1338.66 467.63 1350.43 484.06 1360.66 501.40 C 1371.68 520.26 1380.79 540.38 1386.15 561.61 C 1391.85 584.39 1393.04 608.77 1386.26 631.46 C 1381.68 647.34 1373.47 662.08 1362.76 674.64 C 1348.45 691.41 1330.24 704.45 1310.90 714.83 C 1275.54 733.68 1236.48 744.14 1197.45 752.24 C 1113.77 770.84 1031.05 794.51 951.32 826.16 C 929.99 834.75 908.82 843.80 888.29 854.19 C 879.91 858.88 871.58 863.67 862.93 867.86 C 854.46 872.27 845.52 875.69 837.08 880.16 C 798.07 899.46 759.08 918.80 720.07 938.11 C 714.10 940.57 708.85 944.47 702.78 946.72 C 685.01 953.70 666.93 960.30 648.07 963.66 C 636.53 965.61 624.53 966.45 613.03 963.76 C 603.27 961.49 594.10 955.95 588.31 947.68 C 586.05 944.31 583.82 940.56 579.92 938.89 C 573.03 935.73 565.27 937.21 558.22 938.97 C 549.11 941.35 540.64 945.53 531.96 949.06 C 519.60 955.41 505.93 959.56 491.96 959.77 C 475.87 959.97 459.90 954.58 446.91 945.14 C 427.90 931.50 414.61 911.48 404.21 890.85 C 386.09 855.93 366.33 821.74 342.89 790.09 C 320.97 760.51 295.67 733.13 265.98 711.22 C 247.85 697.67 228.02 686.42 207.15 677.68 C 188.25 669.94 168.90 663.36 149.35 657.45 C 133.41 652.47 117.08 648.30 102.00 640.96 C 91.05 635.63 81.54 626.98 76.15 615.95 C 69.38 601.84 67.63 585.98 66.76 570.54 C 65.86 561.39 66.37 552.17 65.56 543.02 C 65.05 533.99 65.11 524.95 64.89 515.91 C 64.35 510.07 63.95 503.86 66.67 498.46 C 68.70 491.23 72.15 483.85 78.66 479.63 C 85.01 475.30 93.32 475.10 100.49 477.28 C 110.18 480.18 118.35 486.49 126.02 492.86 C 135.16 500.85 144.47 508.74 154.76 515.23 C 159.36 518.00 164.18 520.69 169.53 521.64 C 172.41 522.39 175.28 521.06 177.92 520.03 C 206.15 506.15 238.01 501.89 269.14 501.26 C 289.69 503.47 310.32 504.61 330.90 506.49 C 348.29 508.52 366.59 510.66 381.66 520.34 C 393.09 527.61 400.82 539.65 404.14 552.65 C 409.56 573.31 407.13 594.85 407.84 615.94 C 407.97 628.77 408.38 641.76 411.44 654.27 C 414.41 666.21 421.39 676.57 428.71 686.26 C 439.25 699.93 450.15 713.37 462.17 725.78 C 468.89 732.78 475.84 739.69 481.13 747.89 C 486.00 754.94 489.78 762.66 493.78 770.22 C 498.52 778.59 508.35 781.98 517.43 782.75 C 535.88 784.16 553.83 778.60 571.78 775.29 C 587.19 773.55 602.56 778.20 616.36 784.73 C 636.99 794.35 654.71 810.81 664.28 831.61 C 667.63 838.47 669.11 846.20 673.50 852.56 C 675.81 855.99 679.89 858.08 684.00 858.24 C 692.65 858.78 700.83 855.17 708.47 851.56 C 721.11 845.07 732.60 836.47 743.01 826.83 C 746.38 823.84 748.71 819.93 751.62 816.53 C 765.52 799.81 781.70 785.20 797.97 770.85 C 828.32 744.63 860.06 720.07 892.43 696.40 C 899.10 691.72 905.41 686.47 912.62 682.60 C 943.60 665.55 981.28 659.98 1015.48 669.79 C 1034.57 675.51 1053.77 681.86 1073.82 682.99 C 1084.72 683.05 1095.87 680.34 1104.72 673.73 C 1117.12 664.99 1125.01 651.73 1133.28 639.35 C 1143.08 625.41 1155.63 612.42 1171.92 606.38 C 1183.11 602.14 1195.53 602.17 1207.03 605.13 C 1210.91 605.91 1214.59 607.66 1218.55 607.99 C 1226.43 606.68 1234.20 602.51 1238.62 595.69 C 1241.91 590.71 1240.73 584.14 1237.71 579.34 C 1230.84 567.71 1219.02 560.50 1208.41 552.70 C 1177.47 529.31 1150.13 501.63 1123.44 473.62 C 1106.02 454.96 1088.93 435.98 1072.73 416.26 C 1013.55 324.38 954.65 232.31 895.50 140.41 C 884.09 126.56 873.53 111.48 867.88 94.29 C 864.03 82.47 863.47 68.56 870.90 57.98 C 879.31 45.87 894.52 41.29 908.49 39.65 M 889.88 65.83 C 883.92 70.27 883.63 78.61 885.47 85.20 C 890.10 101.95 900.77 116.13 911.56 129.42 C 969.72 219.94 1027.85 310.48 1085.97 401.02 C 1089.13 406.34 1093.51 410.76 1097.43 415.50 C 1111.75 432.19 1126.45 448.56 1141.59 464.50 C 1166.65 490.74 1192.52 516.49 1221.62 538.30 C 1234.22 547.07 1247.16 556.51 1254.85 570.16 C 1259.67 578.50 1261.52 588.78 1258.68 598.10 C 1256.11 606.38 1250.35 613.44 1243.26 618.31 C 1235.70 623.53 1226.80 627.23 1217.51 627.24 C 1213.49 627.16 1209.65 626.08 1205.86 624.89 C 1198.44 622.61 1190.43 621.54 1182.79 623.32 C 1174.95 625.22 1168.05 629.79 1162.20 635.23 C 1154.54 642.39 1148.48 651.06 1142.99 659.94 C 1137.07 668.79 1130.53 677.37 1122.47 684.39 C 1110.68 695.14 1095.07 701.75 1079.07 702.02 C 1054.58 702.95 1031.17 694.52 1007.98 687.86 C 994.94 684.39 981.28 683.44 967.88 684.98 C 947.09 687.57 926.47 694.78 909.85 707.77 C 891.13 721.30 872.69 735.20 854.54 749.48 C 826.26 771.99 798.00 794.84 773.25 821.28 C 766.59 828.83 759.55 836.48 755.82 845.98 C 770.16 848.39 784.80 840.92 798.89 846.11 C 807.00 848.74 812.38 856.78 812.59 865.20 C 818.85 864.93 824.89 863.01 830.75 860.88 C 847.60 854.59 863.44 845.96 879.04 837.09 C 897.72 827.59 916.95 819.24 936.32 811.28 C 1020.91 777.04 1108.94 751.84 1198.00 732.26 C 1236.79 724.14 1275.66 713.19 1310.06 692.98 C 1329.88 681.27 1348.14 665.71 1359.52 645.42 C 1368.32 629.87 1372.20 611.79 1371.42 594.00 C 1370.64 571.43 1363.28 549.63 1353.64 529.40 C 1343.46 508.55 1330.56 489.08 1315.77 471.22 C 1310.10 464.88 1304.95 458.11 1299.74 451.40 C 1253.92 393.48 1207.51 335.96 1158.22 280.94 C 1142.45 263.70 1126.67 246.37 1108.97 231.06 C 1102.52 225.31 1095.00 220.97 1088.10 215.82 C 1061.96 196.63 1037.27 173.89 1021.92 144.92 C 1014.23 131.07 1013.14 114.82 1006.36 100.60 C 1000.67 87.65 991.04 76.34 978.60 69.44 C 960.85 59.49 939.89 57.51 919.91 58.03 C 909.63 58.90 898.54 59.60 889.88 65.83 M 90.45 495.35 C 87.62 496.42 86.71 499.64 85.85 502.24 C 84.85 506.74 83.60 511.28 83.97 515.94 C 84.30 526.62 85.01 537.30 85.01 548.00 C 85.97 560.61 85.60 573.32 87.62 585.84 C 89.10 595.98 91.53 606.63 98.45 614.56 C 106.61 623.43 118.52 627.20 129.58 631.06 C 170.51 643.83 212.52 655.27 249.71 677.24 C 296.96 704.68 335.36 745.10 366.51 789.57 C 388.19 820.46 406.83 853.38 424.04 886.94 C 431.63 901.03 440.69 914.67 452.92 925.18 C 463.43 934.23 476.90 940.61 491.00 940.28 C 502.96 940.54 514.47 936.31 524.93 930.84 C 535.21 926.76 545.27 921.86 556.16 919.53 C 562.68 917.82 569.45 917.75 576.14 918.07 C 586.95 918.93 597.13 925.11 602.76 934.40 C 605.45 939.01 609.87 942.53 614.97 944.12 C 624.50 947.28 634.80 946.28 644.52 944.62 C 662.53 941.26 679.83 935.01 696.78 928.19 C 701.43 926.23 706.49 923.26 707.93 918.07 C 709.06 911.01 704.62 903.72 698.29 900.69 C 690.63 896.61 683.17 892.05 676.58 886.37 C 664.17 876.09 654.74 862.29 649.59 847.03 C 645.33 834.49 637.51 823.23 627.38 814.73 C 614.30 803.66 597.99 796.34 580.98 794.16 C 577.53 793.62 574.14 794.58 570.78 795.20 C 555.03 798.54 539.17 802.61 522.94 802.04 C 513.50 802.36 503.85 800.87 495.30 796.73 C 486.76 792.78 479.75 785.76 475.51 777.39 C 470.46 767.26 465.02 757.14 457.23 748.82 C 449.79 740.92 442.14 733.19 435.08 724.94 C 423.26 710.98 411.33 696.93 401.83 681.25 C 392.38 665.58 389.26 647.04 388.96 628.99 C 387.57 610.26 388.80 591.45 387.95 572.70 C 386.78 560.72 384.16 547.55 374.63 539.27 C 363.15 529.84 347.77 528.22 333.58 526.32 C 313.13 524.10 292.58 523.07 272.12 520.92 C 262.22 520.36 252.33 521.26 242.50 522.27 C 223.22 524.57 203.87 528.71 186.43 537.50 C 177.26 542.19 166.19 542.08 156.80 538.08 C 143.42 532.51 132.00 523.28 120.93 514.13 C 113.03 507.49 105.50 499.87 95.68 496.13 C 94.01 495.71 92.17 494.53 90.45 495.35 M 695.88 876.64 C 700.00 879.45 704.34 881.93 708.74 884.29 C 719.23 889.78 726.17 901.04 727.36 912.71 C 750.67 901.38 773.83 889.75 797.06 878.28 C 794.27 874.29 792.67 869.50 793.04 864.61 C 784.10 862.11 774.95 865.62 765.92 865.80 C 756.04 866.49 744.14 864.97 738.48 855.72 C 725.60 864.94 711.54 873.29 695.88 876.64 Z M 695.88 876.64 " fill="#000000"/>
        <path d="M 984.84 392.33 L 1002.90 378.63 L 1019.03 418.21 Z M 984.84 392.33 " fill-rule="non-zero" fill="#FF0000"/>
        <path d="M 873.00 66.00 C 851.67 143.67 847.33 123.33 870.00 159.00 C 896.87 201.29 891.04 162.42 913.00 197.00 C 975.45 295.34 999.75 334.62 1049.00 405.00 C 1148.85 547.69 1221.33 568.33 1221.00 586.00 C 1220.66 603.95 1172.33 603.67 1163.00 619.00 " stroke="#000000" stroke-width="9.00" fill="none"/>
        <path d="M 889.00 100.00 C 937.67 112.67 942.50 116.65 943.00 122.00 C 945.86 152.50 945.04 155.42 961.00 181.00 C 1022.66 279.83 1051.54 324.47 1102.00 394.00 C 1196.85 524.69 1323.41 577.95 1334.00 587.00 C 1339.17 591.42 1331.19 603.99 1328.00 610.00 C 1321.66 621.95 1246.33 610.67 1230.00 620.00 " stroke="#000000" stroke-width="9.00" fill="none"/>
        <g>
            <path d="M 1016.73 430.88 L 1028.88 420.99 L 1038.77 433.15 L 1026.62 443.03 Z M 1016.73 430.88 " fill-rule="non-zero" fill="#000000"/>
            <path d="M 1026.62 443.03 L 1038.77 433.15 L 1048.66 445.30 L 1036.51 455.19 Z M 1026.62 443.03 " fill-rule="non-zero" fill="#FFFFFF"/>
            <path d="M 1036.51 455.19 L 1048.66 445.30 L 1058.55 457.45 L 1046.40 467.34 Z M 1036.51 455.19 " fill-rule="non-zero" fill="#000000"/>
            <path d="M 1028.78 421.08 L 1040.93 411.19 L 1050.82 423.34 L 1038.67 433.23 Z M 1028.78 421.08 " fill-rule="non-zero" fill="#FFFFFF"/>
            <path d="M 1048.55 445.39 L 1060.71 435.50 L 1070.60 447.65 L 1058.44 457.54 Z M 1048.55 445.39 " fill-rule="non-zero" fill="#FFFFFF"/>
            <path d="M 1038.56 433.32 L 1050.71 423.43 L 1060.60 435.58 L 1048.45 445.47 Z M 1038.56 433.32 " fill-rule="non-zero" fill="#000000"/>
            <path d="M 1040.82 411.28 L 1052.98 401.39 L 1062.87 413.54 L 1050.71 423.43 Z M 1040.82 411.28 " fill-rule="non-zero" fill="#000000"/>
            <path d="M 1050.71 423.43 L 1062.87 413.54 L 1072.75 425.70 L 1060.60 435.58 Z M 1050.71 423.43 " fill-rule="non-zero" fill="#FFFFFF"/>
            <path d="M 1060.60 435.58 L 1072.75 425.70 L 1082.64 437.85 L 1070.49 447.74 Z M 1060.60 435.58 " fill-rule="non-zero" fill="#000000"/>
            <path d="M 1052.87 401.48 L 1065.02 391.59 L 1074.91 403.74 L 1062.76 413.63 Z M 1052.87 401.48 " fill-rule="non-zero" fill="#FFFFFF"/>
            <path d="M 1072.65 425.78 L 1084.80 415.89 L 1094.69 428.05 L 1082.54 437.94 Z M 1072.65 425.78 " fill-rule="non-zero" fill="#FFFFFF"/>
            <path d="M 1062.65 413.72 L 1074.81 403.83 L 1084.69 415.98 L 1072.54 425.87 Z M 1062.65 413.72 " fill-rule="non-zero" fill="#000000"/>
            <path d="M 1064.36 391.42 L 1076.51 381.53 L 1086.40 393.69 L 1074.25 403.57 Z M 1064.36 391.42 " fill-rule="non-zero" fill="#000000"/>
            <path d="M 1074.25 403.57 L 1086.40 393.69 L 1096.29 405.84 L 1084.13 415.73 Z M 1074.25 403.57 " fill-rule="non-zero" fill="#FFFFFF"/>
            <path d="M 1084.13 415.73 L 1096.29 405.84 L 1106.18 417.99 L 1094.02 427.88 Z M 1084.13 415.73 " fill-rule="non-zero" fill="#000000"/>
        </g>
    </g>
</svg>