<?xml version="1.0" encoding="UTF-8"?>
<svg xmlns="http://www.w3.org/2000/svg" xmlns:xlink="http://www.w3.org/1999/xlink" clip-rule="evenodd" stroke-miterlimit="10" viewBox="0 0 481.89 255.12">
    <desc>SVG generated by Lineform</desc>
    <defs/>
    <g>
        <g>
            <path d="M 303.49 132.96 C 286.77 137.52 274.19 169.85 254.99 169.85 " stroke="#000000" stroke-width="10.00" fill="none"/>
            <path d="M 27.81 172.48 C 11.54 178.70 13.56 187.51 13.51 202.70 C 13.47 216.80 18.88 232.45 24.83 237.91 C 28.40 241.19 34.68 242.39 39.49 241.81 C 46.89 240.92 46.17 241.54 92.24 232.24 C 110.79 228.49 115.22 213.28 116.14 207.84 C 117.65 198.78 118.71 193.86 120.03 182.11 C 120.67 176.37 123.99 170.03 129.86 167.82 C 317.84 96.91 300.06 104.15 386.05 71.18 C 390.50 69.48 396.03 73.86 397.73 78.32 C 400.65 85.99 397.56 88.70 394.36 94.37 C 391.61 99.22 385.12 102.10 380.58 103.84 C 354.35 113.84 330.42 122.96 304.48 132.33 C 300.58 133.73 297.17 139.26 297.63 143.37 C 298.13 147.93 297.74 152.63 297.76 157.55 C 297.80 166.85 291.24 169.39 285.95 169.43 C 249.70 169.73 219.56 170.86 183.31 171.16 C 176.42 171.21 170.00 174.94 162.17 183.43 C 157.60 188.39 155.28 200.72 158.32 206.51 C 163.47 216.32 172.13 215.18 180.15 214.00 C 200.44 211.00 211.15 209.27 228.75 206.01 C 264.68 199.33 279.97 196.79 357.24 178.09 C 377.65 173.15 387.28 163.24 392.10 154.78 C 428.31 91.26 407.11 130.38 466.26 25.84 C 468.78 21.38 471.03 3.81 443.94 14.32 Z M 27.81 172.48 " stroke="#000000" stroke-width="10.00" fill="none"/>
            <path d="M 408.19 28.37 C 399.71 31.46 383.91 36.96 382.58 37.21 C 373.23 38.93 367.22 31.89 359.98 34.62 C 268.93 69.03 178.48 103.79 86.81 137.86 C 81.58 139.80 77.21 144.01 72.41 147.08 C 57.38 152.82 36.37 160.83 30.08 163.23 C 23.54 165.72 19.99 175.47 16.33 181.07 " stroke="#000000" stroke-width="4.43" fill="none"/>
            <g>
                <path d="M 257.10 51.64 L 259.83 58.94 L 252.52 61.67 L 249.80 54.36 Z M 257.10 51.64 " fill-rule="non-zero" fill="#000000"/>
                <path d="M 249.80 54.36 L 252.52 61.67 L 245.22 64.39 L 242.49 57.08 Z M 249.80 54.36 " fill-rule="non-zero" fill="#FFFFFF"/>
                <path d="M 242.49 57.08 L 245.22 64.39 L 237.91 67.11 L 235.19 59.81 Z M 242.49 57.08 " fill-rule="non-zero" fill="#000000"/>
                <path d="M 259.80 58.88 L 262.53 66.19 L 255.22 68.91 L 252.50 61.60 Z M 259.80 58.88 " fill-rule="non-zero" fill="#FFFFFF"/>
                <path d="M 245.19 64.33 L 247.91 71.63 L 240.61 74.35 L 237.89 67.05 Z M 245.19 64.33 " fill-rule="non-zero" fill="#FFFFFF"/>
                <path d="M 252.47 61.54 L 255.20 68.84 L 247.89 71.57 L 245.17 64.26 Z M 252.47 61.54 " fill-rule="non-zero" fill="#000000"/>
                <path d="M 262.50 66.12 L 265.22 73.43 L 257.92 76.15 L 255.20 68.84 Z M 262.50 66.12 " fill-rule="non-zero" fill="#000000"/>
                <path d="M 255.20 68.84 L 257.92 76.15 L 250.61 78.87 L 247.89 71.57 Z M 255.20 68.84 " fill-rule="non-zero" fill="#FFFFFF"/>
                <path d="M 247.89 71.57 L 250.61 78.87 L 243.31 81.60 L 240.58 74.29 Z M 247.89 71.57 " fill-rule="non-zero" fill="#000000"/>
                <path d="M 265.20 73.36 L 267.92 80.67 L 260.62 83.39 L 257.89 76.09 Z M 265.20 73.36 " fill-rule="non-zero" fill="#FFFFFF"/>
                <path d="M 250.59 78.81 L 253.31 86.12 L 246.00 88.84 L 243.28 81.53 Z M 250.59 78.81 " fill-rule="non-zero" fill="#FFFFFF"/>
                <path d="M 257.87 76.02 L 260.59 83.33 L 253.29 86.05 L 250.56 78.75 Z M 257.87 76.02 " fill-rule="non-zero" fill="#000000"/>
                <path d="M 268.11 80.38 L 270.83 87.69 L 263.52 90.41 L 260.80 83.11 Z M 268.11 80.38 " fill-rule="non-zero" fill="#000000"/>
                <path d="M 260.80 83.11 L 263.52 90.41 L 256.22 93.13 L 253.50 85.83 Z M 260.80 83.11 " fill-rule="non-zero" fill="#FFFFFF"/>
                <path d="M 253.50 85.83 L 256.22 93.13 L 248.91 95.86 L 246.19 88.55 Z M 253.50 85.83 " fill-rule="non-zero" fill="#000000"/>
            </g>
            <path d="M 279.56 49.76 L 275.50 39.34 L 258.50 51.82 Z M 279.56 49.76 " fill-rule="non-zero" fill="#FF0000"/>
            <path d="M 239.01 145.05 L 235.10 134.58 L 256.09 132.57 Z M 239.01 145.05 " fill-rule="non-zero" fill="#FF0000"/>
            <ellipse cx="16.41" cy="180.31" rx="4.50" ry="4.50" fill="#FFFFFF" stroke="#000000" stroke-width="1.00"/>
            <ellipse cx="30.33" cy="240.83" rx="4.50" ry="4.50" fill="#FFFFFF" stroke="#000000" stroke-width="1.00"/>
            <ellipse cx="108.76" cy="223.56" rx="4.50" ry="4.50" fill="#FFFFFF" stroke="#000000" stroke-width="1.00"/>
            <ellipse cx="124.16" cy="171.91" rx="4.50" ry="4.50" fill="#FFFFFF" stroke="#000000" stroke-width="1.00"/>
            <ellipse cx="398.24" cy="79.53" rx="4.50" ry="4.50" fill="#FFFFFF" stroke="#000000" stroke-width="1.00"/>
            <ellipse cx="299.41" cy="136.58" rx="4.50" ry="4.50" fill="#FFFFFF" stroke="#000000" stroke-width="1.00"/>
            <ellipse cx="294.51" cy="166.64" rx="4.50" ry="4.50" fill="#FFFFFF" stroke="#000000" stroke-width="1.00"/>
            <ellipse cx="157.74" cy="193.94" rx="4.50" ry="4.50" fill="#FFFFFF" stroke="#000000" stroke-width="1.00"/>
            <ellipse cx="381.43" cy="167.41" rx="4.50" ry="4.50" fill="#FFFFFF" stroke="#000000" stroke-width="1.00"/>
            <ellipse cx="465.31" cy="13.37" rx="4.50" ry="4.50" fill="#FFFFFF" stroke="#000000" stroke-width="1.00"/>
            <ellipse cx="264.69" cy="168.75" rx="4.50" ry="4.50" fill="#FFFFFF" stroke="#000000" stroke-width="1.00"/>
        </g>
    </g>
</svg>