<?xml version="1.0" encoding="UTF-8"?>
<svg xmlns="http://www.w3.org/2000/svg" xmlns:xlink="http://www.w3.org/1999/xlink" clip-rule="evenodd" stroke-miterlimit="10" viewBox="0 0 690.66 638.50">
    <desc>SVG generated by Lineform</desc>
    <defs/>
    <g>
        <path d="M 536.49 62.61 C 518.39 66.06 512.82 82.35 507.53 89.20 C 498.82 100.50 473.93 103.51 457.64 106.78 " stroke="#999999" stroke-width="10.00" fill="none"/>
        <path d="M 338.98 277.18 C 343.63 268.22 347.68 262.81 356.04 262.19 C 365.47 261.49 365.51 265.19 368.28 271.27 " stroke="#999999" stroke-width="10.00" fill="none"/>
        <path d="M 530.86 65.82 C 539.00 63.35 564.49 76.14 552.11 89.20 C 514.56 128.83 474.61 167.66 437.06 207.29 L 407.83 251.35 " stroke="#000000" stroke-width="6.00" fill="none"/>
        <path d="M 265.67 406.96 C 268.21 396.45 272.83 391.27 282.38 392.48 C 293.58 393.90 292.64 428.50 314.01 410.06 " stroke="#999999" stroke-width="10.00" fill="none"/>
        <path d="M 285.29 339.75 C 282.81 353.53 287.88 358.70 296.67 361.98 C 307.01 365.83 316.47 357.67 319.44 348.53 " stroke="#999999" stroke-width="10.00" fill="none"/>
        <path d="M 606.66 55.38 C 595.28 61.41 590.63 65.89 584.42 71.92 C 574.93 81.15 571.50 83.12 561.67 94.67 " stroke="#999999" stroke-width="10.00" fill="none"/>
        <path d="M 554.95 14.53 C 563.22 31.94 561.77 42.46 557.02 49.69 C 549.60 60.98 545.90 59.34 529.36 64.68 " stroke="#999999" stroke-width="10.00" fill="none"/>
        <path d="M 428.28 235.82 C 384.67 268.57 377.13 278.27 369.34 271.50 C 361.99 265.11 367.78 257.88 371.92 249.26 C 376.18 240.39 385.19 235.30 387.95 224.45 C 389.71 217.52 382.55 208.80 376.06 205.83 C 362.10 199.46 343.48 207.26 330.56 211.00 C 317.46 214.79 306.38 221.48 307.29 231.68 C 308.40 244.11 316.43 248.40 325.39 248.75 C 329.54 248.91 334.06 250.77 336.76 257.02 C 339.91 264.31 338.62 281.77 334.18 299.93 C 326.25 332.33 304.28 384.48 309.88 399.72 C 315.86 416.00 346.20 418.73 353.31 429.19 C 365.38 446.97 319.86 459.31 302.12 473.14 C 281.78 489.00 254.57 512.93 241.11 532.60 C 229.76 549.19 215.24 560.55 203.88 550.70 C 194.07 542.17 199.58 532.43 212.16 520.71 C 237.13 497.45 268.51 462.97 270.58 450.91 C 272.70 438.58 263.54 425.37 264.89 412.13 C 267.84 383.35 300.23 305.46 302.12 285.46 C 303.94 266.19 256.79 259.34 248.35 241.51 C 242.13 228.36 324.84 142.41 339.86 133.45 C 353.28 125.45 423.67 115.44 476.88 102.40 C 494.46 98.09 484.06 77.72 494.46 72.95 C 503.09 68.99 549.87 57.03 561.16 69.34 C 571.89 81.04 565.98 93.12 560.12 97.77 Z M 563.74 89.50 " stroke="#000000" stroke-width="10.00" fill="none"/>
        <text xml:space="preserve" font-family="Liberation Sans" font-size="6.00" transform="matrix(3.24225, 0, 0, 3.24225, 0, 0)" opacity="0.50">
            <tspan x="112.85" y="141.00">Ford-Kurve</tspan>
        </text>
        <text xml:space="preserve" font-family="Liberation Sans" font-size="6.00" transform="matrix(3.24225, 0, 0, 3.24225, 0, 0)" opacity="0.50">
            <tspan x="154.94" y="60.74">Start-und</tspan>
            <tspan x="154.94" y="66.74">Zielgerade</tspan>
        </text>
        <path d="M 564.46 121.63 L 575.09 132.95 L 549.29 146.79 Z M 564.46 121.63 " fill-rule="non-zero" fill="#FF0000"/>
        <text xml:space="preserve" font-family="Liberation Sans" font-size="6.00" transform="matrix(3.24225, 0, 0, 3.24225, 0, 0)" opacity="0.50">
            <tspan x="35.72" y="72.18">Warsteiner-</tspan>
            <tspan x="50.72" y="78.18">Kurve</tspan>
        </text>
        <text xml:space="preserve" font-family="Liberation Sans" font-size="6.00" transform="matrix(3.24225, 0, 0, 3.24225, 0, 0)" opacity="0.50">
            <tspan x="62.00" y="39.74">ADVAN-Bogen</tspan>
        </text>
        <text xml:space="preserve" font-family="Liberation Sans" font-size="6.00" transform="matrix(3.24225, 0, 0, 3.24225, 0, 0)" opacity="0.50">
            <tspan x="101.12" y="52.85">Mercedes-</tspan>
            <tspan x="101.12" y="58.85">Arena</tspan>
        </text>
        <text xml:space="preserve" font-family="Liberation Sans" font-size="6.00" transform="matrix(3.24225, 0, 0, 3.24225, 0, 0)" opacity="0.50">
            <tspan x="50.69" y="131.64">Michael-</tspan>
            <tspan x="33.69" y="137.64">Schumacher-S</tspan>
        </text>
        <text xml:space="preserve" font-family="Liberation Sans" font-size="6.00" transform="matrix(3.24225, 0, 0, 3.24225, 0, 0)" opacity="0.50">
            <tspan x="131.58" y="13.52">NGK-</tspan>
            <tspan x="123.58" y="19.52">Schikane</tspan>
        </text>
        <text xml:space="preserve" font-family="Liberation Sans" font-size="6.00" transform="matrix(3.24225, 0, 0, 3.24225, 0, 0)" opacity="0.50">
            <tspan x="64.53" y="178.93">Dunlop-Kehre</tspan>
        </text>
        <g>
            <path d="M 511.71 120.13 L 518.87 127.25 L 511.75 134.41 L 504.59 127.29 Z M 511.71 120.13 " fill-rule="non-zero" fill="#000000"/>
            <path d="M 504.59 127.29 L 511.75 134.41 L 504.64 141.57 L 497.48 134.45 Z M 504.59 127.29 " fill-rule="non-zero" fill="#FFFFFF"/>
            <path d="M 497.48 134.45 L 504.64 141.57 L 497.52 148.73 L 490.36 141.61 Z M 497.48 134.45 " fill-rule="non-zero" fill="#000000"/>
            <path d="M 518.80 127.18 L 525.96 134.30 L 518.85 141.46 L 511.69 134.34 Z M 518.80 127.18 " fill-rule="non-zero" fill="#FFFFFF"/>
            <path d="M 504.57 141.51 L 511.73 148.62 L 504.62 155.78 L 497.46 148.67 Z M 504.57 141.51 " fill-rule="non-zero" fill="#FFFFFF"/>
            <path d="M 511.63 134.28 L 518.79 141.40 L 511.67 148.56 L 504.51 141.44 Z M 511.63 134.28 " fill-rule="non-zero" fill="#000000"/>
            <path d="M 525.90 134.24 L 533.06 141.35 L 525.95 148.51 L 518.79 141.40 Z M 525.90 134.24 " fill-rule="non-zero" fill="#000000"/>
            <path d="M 518.79 141.40 L 525.95 148.51 L 518.83 155.67 L 511.67 148.56 Z M 518.79 141.40 " fill-rule="non-zero" fill="#FFFFFF"/>
            <path d="M 511.67 148.56 L 518.83 155.67 L 511.72 162.83 L 504.56 155.72 Z M 511.67 148.56 " fill-rule="non-zero" fill="#000000"/>
            <path d="M 533.00 141.29 L 540.16 148.41 L 533.04 155.57 L 525.88 148.45 Z M 533.00 141.29 " fill-rule="non-zero" fill="#FFFFFF"/>
            <path d="M 518.77 155.61 L 525.93 162.73 L 518.81 169.89 L 511.65 162.77 Z M 518.77 155.61 " fill-rule="non-zero" fill="#FFFFFF"/>
            <path d="M 525.82 148.39 L 532.98 155.50 L 525.87 162.66 L 518.71 155.55 Z M 525.82 148.39 " fill-rule="non-zero" fill="#000000"/>
            <path d="M 540.22 147.97 L 547.38 155.08 L 540.27 162.24 L 533.11 155.13 Z M 540.22 147.97 " fill-rule="non-zero" fill="#000000"/>
            <path d="M 533.11 155.13 L 540.27 162.24 L 533.15 169.40 L 525.99 162.29 Z M 533.11 155.13 " fill-rule="non-zero" fill="#FFFFFF"/>
            <path d="M 525.99 162.29 L 533.15 169.40 L 526.04 176.56 L 518.87 169.45 Z M 525.99 162.29 " fill-rule="non-zero" fill="#000000"/>
        </g>
        <text xml:space="preserve" font-family="Liberation Sans" font-size="6.00" transform="matrix(3.24225, 0, 0, 3.24225, 0, 0)" opacity="0.50">
            <tspan x="68.35" y="88.38">RTL-</tspan>
            <tspan x="66.35" y="94.38">Kurve</tspan>
        </text>
        <ellipse cx="352.70" cy="294.08" rx="10.50" ry="10.50" fill="#FFFFFF" stroke="#000000" stroke-width="0.61"/>
        <text xml:space="preserve" font-family="Liberation Sans" font-size="10.00" transform="matrix(0.981308, 0, 0, 0.981308, 0, 0)">
            <tspan x="356.42" y="303.39">5</tspan>
        </text>
        <ellipse cx="328.83" cy="393.50" rx="10.50" ry="10.50" fill="#FFFFFF" stroke="#000000" stroke-width="0.61"/>
        <text xml:space="preserve" font-family="Liberation Sans" font-size="10.00" transform="matrix(0.981308, 0, 0, 0.981308, 0, 0)">
            <tspan x="332.10" y="404.71">6</tspan>
        </text>
        <ellipse cx="375.17" cy="427.17" rx="10.50" ry="10.50" fill="#FFFFFF" stroke="#000000" stroke-width="0.61"/>
        <text xml:space="preserve" font-family="Liberation Sans" font-size="10.00" transform="matrix(0.981308, 0, 0, 0.981308, 0, 0)">
            <tspan x="379.31" y="439.02">7</tspan>
        </text>
        <ellipse cx="192.17" cy="569.50" rx="10.50" ry="10.50" fill="#FFFFFF" stroke="#000000" stroke-width="0.61"/>
        <text xml:space="preserve" font-family="Liberation Sans" font-size="10.00" transform="matrix(0.981308, 0, 0, 0.981308, 0, 0)">
            <tspan x="192.83" y="584.06">8</tspan>
        </text>
        <ellipse cx="248.83" cy="448.17" rx="10.50" ry="10.50" fill="#FFFFFF" stroke="#000000" stroke-width="0.61"/>
        <text xml:space="preserve" font-family="Liberation Sans" font-size="10.00" transform="matrix(0.981308, 0, 0, 0.981308, 0, 0)">
            <tspan x="250.57" y="460.42">9</tspan>
        </text>
        <ellipse cx="245.50" cy="411.50" rx="10.50" ry="10.50" fill="#FFFFFF" stroke="#000000" stroke-width="0.61"/>
        <text xml:space="preserve" font-family="Liberation Sans" font-size="10.00" transform="matrix(0.981308, 0, 0, 0.981308, 0, 0)">
            <tspan x="244.18" y="423.05">10</tspan>
        </text>
        <ellipse cx="280.83" cy="287.83" rx="10.50" ry="10.50" fill="#FFFFFF" stroke="#000000" stroke-width="0.61"/>
        <text xml:space="preserve" font-family="Liberation Sans" font-size="10.00" transform="matrix(0.981308, 0, 0, 0.981308, 0, 0)">
            <tspan x="280.18" y="297.03">11</tspan>
        </text>
        <ellipse cx="228.51" cy="242.89" rx="10.50" ry="10.50" fill="#FFFFFF" stroke="#000000" stroke-width="0.61"/>
        <text xml:space="preserve" font-family="Liberation Sans" font-size="10.00" transform="matrix(0.981308, 0, 0, 0.981308, 0, 0)">
            <tspan x="226.86" y="251.23">12</tspan>
        </text>
        <ellipse cx="336.33" cy="115.16" rx="10.50" ry="10.50" fill="#FFFFFF" stroke="#000000" stroke-width="0.61"/>
        <text xml:space="preserve" font-family="Liberation Sans" font-size="10.00" transform="matrix(0.981308, 0, 0, 0.981308, 0, 0)">
            <tspan x="336.73" y="121.07">13</tspan>
        </text>
        <ellipse cx="471.38" cy="81.30" rx="10.50" ry="10.50" fill="#FFFFFF" stroke="#000000" stroke-width="0.61"/>
        <text xml:space="preserve" font-family="Liberation Sans" font-size="10.00" transform="matrix(0.981308, 0, 0, 0.981308, 0, 0)">
            <tspan x="474.36" y="86.56">14</tspan>
        </text>
        <ellipse cx="575.17" cy="54.50" rx="10.50" ry="10.50" fill="#FFFFFF" stroke="#000000" stroke-width="0.61"/>
        <text xml:space="preserve" font-family="Liberation Sans" font-size="10.00" transform="matrix(0.981308, 0, 0, 0.981308, 0, 0)">
            <tspan x="580.12" y="59.25">16</tspan>
        </text>
        <ellipse cx="491.38" cy="55.30" rx="10.50" ry="10.50" fill="#FFFFFF" stroke="#000000" stroke-width="0.61"/>
        <text xml:space="preserve" font-family="Liberation Sans" font-size="10.00" transform="matrix(0.981308, 0, 0, 0.981308, 0, 0)">
            <tspan x="494.74" y="60.07">15</tspan>
        </text>
        <ellipse cx="369.44" cy="271.45" rx="4.50" ry="4.50" fill="#FFFFFF" stroke="#000000" stroke-width="1.00"/>
        <ellipse cx="376.51" cy="289.87" rx="10.50" ry="10.50" fill="#FFFFFF" stroke="#000000" stroke-width="0.61"/>
        <text xml:space="preserve" font-family="Liberation Sans" font-size="10.00" transform="matrix(0.981308, 0, 0, 0.981308, 0, 0)">
            <tspan x="380.68" y="299.11">1</tspan>
        </text>
        <ellipse cx="384.77" cy="212.55" rx="4.50" ry="4.50" fill="#FFFFFF" stroke="#000000" stroke-width="1.00"/>
        <ellipse cx="310.50" cy="402.83" rx="4.50" ry="4.50" fill="#FFFFFF" stroke="#000000" stroke-width="1.00"/>
        <ellipse cx="355.17" cy="433.83" rx="4.50" ry="4.50" fill="#FFFFFF" stroke="#000000" stroke-width="1.00"/>
        <ellipse cx="204.42" cy="551.08" rx="4.50" ry="4.50" fill="#FFFFFF" stroke="#000000" stroke-width="1.00"/>
        <ellipse cx="270.50" cy="449.50" rx="4.50" ry="4.50" fill="#FFFFFF" stroke="#000000" stroke-width="1.00"/>
        <ellipse cx="264.83" cy="414.83" rx="4.50" ry="4.50" fill="#FFFFFF" stroke="#000000" stroke-width="1.00"/>
        <ellipse cx="301.50" cy="280.83" rx="4.50" ry="4.50" fill="#FFFFFF" stroke="#000000" stroke-width="1.00"/>
        <ellipse cx="248.17" cy="239.50" rx="4.50" ry="4.50" fill="#FFFFFF" stroke="#000000" stroke-width="1.00"/>
        <ellipse cx="341.50" cy="133.17" rx="4.50" ry="4.50" fill="#FFFFFF" stroke="#000000" stroke-width="1.00"/>
        <ellipse cx="482.96" cy="99.46" rx="4.50" ry="4.50" fill="#FFFFFF" stroke="#000000" stroke-width="1.00"/>
        <ellipse cx="492.81" cy="74.02" rx="4.50" ry="4.50" fill="#FFFFFF" stroke="#000000" stroke-width="1.00"/>
        <ellipse cx="561.50" cy="69.50" rx="4.50" ry="4.50" fill="#FFFFFF" stroke="#000000" stroke-width="1.00"/>
        <ellipse cx="307.90" cy="232.52" rx="4.50" ry="4.50" fill="#FFFFFF" stroke="#000000" stroke-width="1.00"/>
        <ellipse cx="335.07" cy="253.72" rx="4.50" ry="4.50" fill="#FFFFFF" stroke="#000000" stroke-width="1.00"/>
        <ellipse cx="367.91" cy="223.39" rx="10.50" ry="10.50" fill="#FFFFFF" stroke="#000000" stroke-width="0.61"/>
        <text xml:space="preserve" font-family="Liberation Sans" font-size="10.00" transform="matrix(0.981308, 0, 0, 0.981308, 0, 0)">
            <tspan x="371.92" y="231.36">2</tspan>
        </text>
        <ellipse cx="292.10" cy="218.74" rx="10.50" ry="10.50" fill="#FFFFFF" stroke="#000000" stroke-width="0.61"/>
        <text xml:space="preserve" font-family="Liberation Sans" font-size="10.00" transform="matrix(0.981308, 0, 0, 0.981308, 0, 0)">
            <tspan x="294.66" y="226.62">3</tspan>
        </text>
        <text xml:space="preserve" font-family="Liberation Sans" font-size="6.00" transform="matrix(3.24225, 0, 0, 3.24225, 0, 0)" opacity="0.50">
            <tspan x="178.72" y="6.38">Coca-Cola-</tspan>
            <tspan x="178.72" y="12.38">Kurve</tspan>
        </text>
        <ellipse cx="337.32" cy="283.22" rx="4.50" ry="4.50" fill="#FFFFFF" stroke="#000000" stroke-width="1.00"/>
        <ellipse cx="346.45" cy="240.08" rx="10.50" ry="10.50" fill="#FFFFFF" stroke="#000000" stroke-width="0.61"/>
        <text xml:space="preserve" font-family="Liberation Sans" font-size="10.00" transform="matrix(0.981308, 0, 0, 0.981308, 0, 0)">
            <tspan x="350.05" y="248.37">4</tspan>
        </text>
    </g>
</svg>