<?xml version="1.0" encoding="UTF-8" standalone="no"?>
<!-- Created with Inkscape (http://www.inkscape.org/) -->

<svg xmlns:dc="http://purl.org/dc/elements/1.1/" xmlns:cc="http://creativecommons.org/ns#" xmlns:rdf="http://www.w3.org/1999/02/22-rdf-syntax-ns#" xmlns:svg="http://www.w3.org/2000/svg" xmlns="http://www.w3.org/2000/svg" xmlns:xlink="http://www.w3.org/1999/xlink" xmlns:sodipodi="http://sodipodi.sourceforge.net/DTD/sodipodi-0.dtd" xmlns:inkscape="http://www.inkscape.org/namespaces/inkscape" width="1392.3656" height="706.19318" id="svg2977" version="1.1" inkscape:version="0.47 r22583" sodipodi:docname="Motorsport Arena Oschersleben.svg" inkscape:export-filename="E:\Images\Maps\Race Tracks\Europe\Germany\Motorsport Arena Oschersleben\Motorsport Arena Oschersleben.png" inkscape:export-xdpi="90" inkscape:export-ydpi="90">
  <title id="title4470">Track map for Motorsport Arena Oschersleben</title>
  <defs id="defs2979">
    <inkscape:perspective sodipodi:type="inkscape:persp3d" inkscape:vp_x="0 : 526.18109 : 1" inkscape:vp_y="0 : 1000 : 0" inkscape:vp_z="744.09448 : 526.18109 : 1" inkscape:persp3d-origin="372.04724 : 350.78739 : 1" id="perspective2985" />
    <inkscape:perspective id="perspective2995" inkscape:persp3d-origin="0.5 : 0.33333333 : 1" inkscape:vp_z="1 : 0.5 : 1" inkscape:vp_y="0 : 1000 : 0" inkscape:vp_x="0 : 0.5 : 1" sodipodi:type="inkscape:persp3d" />
    <inkscape:perspective id="perspective3789" inkscape:persp3d-origin="0.5 : 0.33333333 : 1" inkscape:vp_z="1 : 0.5 : 1" inkscape:vp_y="0 : 1000 : 0" inkscape:vp_x="0 : 0.5 : 1" sodipodi:type="inkscape:persp3d" />
    <clipPath clipPathUnits="userSpaceOnUse" id="clipPath9716">
      <path id="path9718" d="M 871.13547,932.36346 C 1314.8756,1345.252 1758.6155,1758.1404 2202.3556,2171.029 2375.7787,1984.6474 2549.2018,1798.266 2722.6249,1611.8845 2278.8848,1198.996 1835.1448,786.10758 1391.4047,373.21904 1217.9816,559.60052 1044.5586,745.98194 871.13547,932.36346 z" style="fill:#6a6a6a;fill-opacity:1;fill-rule:nonzero;stroke:#010101;stroke-width:0.9426257;stroke-linecap:round;stroke-linejoin:round;stroke-miterlimit:4;stroke-opacity:1;stroke-dasharray:none;stroke-dashoffset:0" />
    </clipPath>
    <clipPath clipPathUnits="userSpaceOnUse" id="clipPath3494">
      <rect style="fill:#006a00;fill-opacity:1;fill-rule:nonzero;stroke:none" id="rect3496" width="2168.1926" height="1468.4177" x="-4232.8457" y="-2372.1296" transform="matrix(-0.9472965,-0.3203582,0.9519016,-0.3064038,0,0)" />
    </clipPath>
    <pattern inkscape:collect="always" xlink:href="#pattern4256" id="pattern4264" patternTransform="matrix(-0.7760302,9.7935943e-4,-9.7935943e-4,-0.7760302,-1599.8308,380.49)" />
    <pattern patternUnits="userSpaceOnUse" width="10.793857" height="10.773841" patternTransform="matrix(-0.5630234,-0.534067,0.534067,-0.5630234,1593.7246,910.57043)" id="pattern4256">
      <g id="g4248" transform="matrix(0.5878912,6.0987118e-3,-6.0987118e-3,0.5878912,-595.3809,-720.7077)">
        <rect style="opacity:1;fill:black;fill-opacity:1;stroke:none;stroke-width:0.5;stroke-linecap:round;stroke-linejoin:round;stroke-miterlimit:4;stroke-dasharray:none;stroke-dashoffset:0;stroke-opacity:1" id="rect4250" width="18.172573" height="18.095789" x="1025.5348" y="1215.2814" />
        <rect style="opacity:1;fill:white;fill-opacity:1;stroke:none;stroke-width:0.5;stroke-linecap:round;stroke-linejoin:round;stroke-miterlimit:4;stroke-dasharray:none;stroke-dashoffset:0;stroke-opacity:1" id="rect4252" width="9.0746527" height="9.0746527" x="1025.5348" y="1215.2814" />
        <rect style="opacity:1;fill:white;fill-opacity:1;stroke:none;stroke-width:0.5;stroke-linecap:round;stroke-linejoin:round;stroke-miterlimit:4;stroke-dasharray:none;stroke-dashoffset:0;stroke-opacity:1" id="rect4254" width="9.0746527" height="9.0746527" x="1034.6412" y="1224.3444" />
      </g>
    </pattern>
    <clipPath clipPathUnits="userSpaceOnUse" id="clipPath3490">
      <rect style="fill:#006a00;fill-opacity:1;fill-rule:nonzero;stroke:none" id="rect3492" width="1511.7875" height="1003.7479" x="683.1405" y="104.1039" transform="matrix(-0.7183395,0.6956928,-0.6956928,-0.7183395,0,0)" />
    </clipPath>
    <pattern patternUnits="userSpaceOnUse" width="10.793857" height="10.773841" patternTransform="matrix(-0.5630234,-0.534067,0.534067,-0.5630234,1593.7246,910.57043)" id="pattern3805">
      <g id="g3807" transform="matrix(0.5878912,6.0987118e-3,-6.0987118e-3,0.5878912,-595.3809,-720.7077)">
        <rect style="opacity:1;fill:black;fill-opacity:1;stroke:none;stroke-width:0.5;stroke-linecap:round;stroke-linejoin:round;stroke-miterlimit:4;stroke-dasharray:none;stroke-dashoffset:0;stroke-opacity:1" id="rect3809" width="18.172573" height="18.095789" x="1025.5348" y="1215.2814" />
        <rect style="opacity:1;fill:white;fill-opacity:1;stroke:none;stroke-width:0.5;stroke-linecap:round;stroke-linejoin:round;stroke-miterlimit:4;stroke-dasharray:none;stroke-dashoffset:0;stroke-opacity:1" id="rect3811" width="9.0746527" height="9.0746527" x="1025.5348" y="1215.2814" />
        <rect style="opacity:1;fill:white;fill-opacity:1;stroke:none;stroke-width:0.5;stroke-linecap:round;stroke-linejoin:round;stroke-miterlimit:4;stroke-dasharray:none;stroke-dashoffset:0;stroke-opacity:1" id="rect3813" width="9.0746527" height="9.0746527" x="1034.6412" y="1224.3444" />
      </g>
    </pattern>
    <inkscape:perspective id="perspective4129" inkscape:persp3d-origin="0.5 : 0.33333333 : 1" inkscape:vp_z="1 : 0.5 : 1" inkscape:vp_y="0 : 1000 : 0" inkscape:vp_x="0 : 0.5 : 1" sodipodi:type="inkscape:persp3d" />
    <filter color-interpolation-filters="sRGB" inkscape:collect="always" id="filter5277" x="-0.036581911" width="1.0731637" y="-0.16673841" height="1.3334768">
      <feGaussianBlur inkscape:collect="always" stdDeviation="4.5896484" id="feGaussianBlur5279" />
    </filter>
    <inkscape:perspective id="perspective4439" inkscape:persp3d-origin="0.5 : 0.33333333 : 1" inkscape:vp_z="1 : 0.5 : 1" inkscape:vp_y="0 : 1000 : 0" inkscape:vp_x="0 : 0.5 : 1" sodipodi:type="inkscape:persp3d" />
    <filter color-interpolation-filters="sRGB" inkscape:collect="always" id="filter5277-1" x="-0.036581911" width="1.0731637" y="-0.16673841" height="1.3334768">
      <feGaussianBlur inkscape:collect="always" stdDeviation="4.5896484" id="feGaussianBlur5279-7" />
    </filter>
  </defs>
  <sodipodi:namedview id="base" pagecolor="#ffffff" bordercolor="#ffffff" borderopacity="0.0" inkscape:pageopacity="0.0" inkscape:pageshadow="0" inkscape:zoom="0.8934435" inkscape:cx="696.1828" inkscape:cy="353.09659" inkscape:document-units="px" inkscape:current-layer="layer1" showgrid="false" inkscape:window-width="1677" inkscape:window-height="1030" inkscape:window-x="1672" inkscape:window-y="-8" inkscape:window-maximized="1" showborder="false" inkscape:showpageshadow="false" />
  <metadata id="metadata2982">
    <rdf:RDF>
      <cc:Work rdf:about="">
        <dc:format>image/svg+xml</dc:format>
        <dc:type rdf:resource="http://purl.org/dc/dcmitype/StillImage" />
        <dc:title>Track map for Motorsport Arena Oschersleben</dc:title>
        <dc:date>January 15, 2010</dc:date>
        <dc:creator>
          <cc:Agent>
            <dc:title>Will Pittenger</dc:title>
          </cc:Agent>
        </dc:creator>
        <dc:publisher>
          <cc:Agent>
            <dc:title>Will Pittenger</dc:title>
          </cc:Agent>
        </dc:publisher>
        <dc:subject>
          <rdf:Bag>
            <rdf:li>Formula 1</rdf:li>
            <rdf:li>F1</rdf:li>
            <rdf:li>Hotel</rdf:li>
            <rdf:li>Hasseröder</rdf:li>
            <rdf:li>Triple</rdf:li>
            <rdf:li>McDonald's</rdf:li>
            <rdf:li>Shell Kurve</rdf:li>
            <rdf:li>Amman Kurve</rdf:li>
            <rdf:li>Bauer Kurve</rdf:li>
            <rdf:li>Zeppeilin Kurve</rdf:li>
            <rdf:li>racing</rdf:li>
            <rdf:li>open wheel racing</rdf:li>
          </rdf:Bag>
        </dc:subject>
        <dc:description>Created in Inkscape</dc:description>
        <cc:license rdf:resource="http://creativecommons.org/licenses/by-sa/3.0/" />
      </cc:Work>
      <cc:License rdf:about="http://creativecommons.org/licenses/by-sa/3.0/">
        <cc:permits rdf:resource="http://creativecommons.org/ns#Reproduction" />
        <cc:permits rdf:resource="http://creativecommons.org/ns#Distribution" />
        <cc:requires rdf:resource="http://creativecommons.org/ns#Notice" />
        <cc:requires rdf:resource="http://creativecommons.org/ns#Attribution" />
        <cc:permits rdf:resource="http://creativecommons.org/ns#DerivativeWorks" />
        <cc:requires rdf:resource="http://creativecommons.org/ns#ShareAlike" />
      </cc:License>
    </rdf:RDF>
  </metadata>
  <g inkscape:label="Layer 1" inkscape:groupmode="layer" id="layer1" transform="translate(820.11521,-57.948112)">
    <use x="0" y="0" xlink:href="#path4215" id="use4225" style="stroke:white;stroke-width:10;stroke-miterlimit:4;stroke-dasharray:none;filter:url(#filter5277)" width="744.09448" height="1052.3622" />
    <use x="0" y="0" xlink:href="#path4217" id="use4227" style="stroke:white;stroke-width:10;stroke-miterlimit:4;stroke-dasharray:none;filter:url(#filter5277)" width="744.09448" height="1052.3622" />
    <use x="0" y="0" xlink:href="#text4165" id="use4199" style="stroke:white;stroke-width:5;stroke-miterlimit:4;stroke-dasharray:none;filter:url(#filter5277)" width="744.09448" height="1052.3622" />
    <use x="0" y="0" xlink:href="#text4169" id="use4201" style="stroke:white;stroke-width:5;stroke-miterlimit:4;stroke-dasharray:none;filter:url(#filter5277)" width="744.09448" height="1052.3622" />
    <use x="0" y="0" xlink:href="#text4173" id="use4203" style="stroke:white;stroke-width:5;stroke-miterlimit:4;stroke-dasharray:none;filter:url(#filter5277)" width="744.09448" height="1052.3622" />
    <use x="0" y="0" xlink:href="#text4177" id="use4205" style="stroke:white;stroke-width:5;stroke-miterlimit:4;stroke-dasharray:none;filter:url(#filter5277)" width="744.09448" height="1052.3622" />
    <use x="0" y="0" xlink:href="#text4181" id="use4207" style="stroke:white;stroke-width:5;stroke-miterlimit:4;stroke-dasharray:none;filter:url(#filter5277)" width="744.09448" height="1052.3622" />
    <use x="0" y="0" xlink:href="#text4185" id="use4209" style="stroke:white;stroke-width:5;stroke-miterlimit:4;stroke-dasharray:none;filter:url(#filter5277)" width="744.09448" height="1052.3622" />
    <use x="0" y="0" xlink:href="#text4189" id="use4211" style="stroke:white;stroke-width:5;stroke-miterlimit:4;stroke-dasharray:none;filter:url(#filter5277)" width="744.09448" height="1052.3622" />
    <use x="0" y="0" xlink:href="#text4193" id="use4213" style="stroke:white;stroke-width:5;stroke-miterlimit:4;stroke-dasharray:none;filter:url(#filter5277)" width="744.09448" height="1052.3622" />
    <use x="0" y="0" xlink:href="#path3773" id="use4161" style="stroke:white;stroke-width:15;stroke-miterlimit:4;stroke-opacity:1;stroke-dasharray:none;filter:url(#filter5277)" width="744.09448" height="1052.3622" />
    <use x="0" y="0" xlink:href="#path3775" id="use4163" style="stroke:white;stroke-width:15;stroke-miterlimit:4;stroke-opacity:1;stroke-dasharray:none;filter:url(#filter5277)" width="744.09448" height="1052.3622" />
    <path style="fill:none" d="m -32.954981,553.01576 c -47.799794,-15.83094 -95.592789,-31.68309 -143.432629,-47.3924 -57.6161,-18.91957 -115.25241,-37.78142 -172.93519,-56.49426 -8.75028,-2.83867 -17.39382,-6.77135 -26.36398,-8.16028 -7.24578,-1.12193 -14.99931,-0.46209 -22.28385,0.62772 -6.00208,0.89795 -12.05737,2.82711 -17.57599,5.33557 -4.83866,2.19939 -9.42333,5.34574 -13.49585,8.78799 -4.71547,3.9857 -8.24141,9.38321 -12.86813,13.49585 -3.84742,3.41993 -7.93461,6.9521 -12.55428,9.10185 -5.94684,2.76734 -12.62924,4.46899 -19.14527,5.64943 -7.92139,1.43504 -16.37926,3.3601 -24.16699,2.197 -8.3236,-1.24313 -16.61364,-5.3369 -24.16699,-9.41571 -8.1395,-4.39533 -16.13823,-9.77767 -22.91155,-16.00671 -4.944,-4.54672 -9.28773,-10.31506 -12.24043,-16.32056 -3.21982,-6.54878 -5.63099,-14.08559 -6.27713,-21.34227 -0.7139,-8.0177 0.51525,-16.53607 2.19699,-24.48085 1.35221,-6.38803 3.8213,-12.76159 6.90486,-18.51756 3.19358,-5.96135 7.18215,-11.84007 11.92656,-16.63442 5.19439,-5.24907 11.24683,-10.3894 17.88985,-13.49585 7.89902,-3.69378 17.00845,-5.59829 25.73627,-6.90485 8.74355,-1.30891 17.87548,-2.16389 26.67784,-0.94157 103.45381,14.36591 206.63622,32.51365 310.09068,47.70626 16.22966,2.38338 33.05075,6.06391 48.96168,5.02171 8.04682,-0.52708 16.388852,-5.00623 22.911562,-9.72957 5.613094,-4.06465 9.604583,-10.69234 13.49585,-16.63441 3.850538,-5.87988 7.777327,-12.19381 9.729565,-18.83142 1.709427,-5.81205 1.856312,-12.45409 1.255428,-18.51756 -0.549924,-5.54924 -2.437784,-11.17817 -4.707854,-16.32057 -2.856261,-6.47031 -5.823294,-13.57178 -10.671137,-18.51756 -5.509437,-5.62074 -13.092994,-9.91141 -20.400704,-13.18199 -7.6528,-3.42503 -16.20393,-5.07748 -24.48084,-6.90485 -48.11272,-10.62229 -96.61219,-19.60577 -144.68806,-30.44413 -81.86091,-18.45496 -163.17612,-40.35592 -245.12229,-57.43582 -9.9093,-2.06538 -20.50657,-1.39572 -30.44412,0 -8.68463,1.21975 -17.73169,3.53696 -25.42242,7.84642 -28.71667,16.09124 -56.86842,34.40722 -83.7998,53.35569 -5.18664,3.64924 -9.25476,9.06955 -12.55428,14.43742 -3.70996,6.0356 -6.91646,12.79967 -8.47414,19.77299 -7.43956,33.30499 -13.95638,67.34499 -18.51756,101.06194 -0.77439,5.72441 0.33278,12.02549 2.51085,17.26213 2.73902,6.58531 8.35231,12.01556 12.24043,18.2037 3.53983,5.63381 7.78232,11.10985 10.04342,17.26214 2.23752,6.08813 3.35522,12.94576 3.45243,19.45913 0.11202,7.50557 -0.73298,15.41793 -2.82472,22.5977 -1.77916,6.10684 -5.03999,12.09597 -8.78799,17.26213 -3.99381,5.50498 -9.12286,10.47652 -14.43742,14.75128 -4.31038,3.46705 -9.28715,6.48963 -14.43742,8.47414 -6.2532,2.40949 -13.11118,4.13846 -19.77299,4.70785 -5.57861,0.4768 -11.42462,-0.41652 -16.94828,-1.56928 -6.50752,-1.35809 -13.3287,-2.83129 -19.14527,-5.96329 -9.14394,-4.92366 -18.28435,-11.08746 -25.73627,-18.2037 -4.16079,-3.97337 -7.11704,-9.64322 -9.10185,-15.06513 -2.30457,-6.29542 -3.91384,-13.29021 -3.76629,-20.08685 1.52635,-70.30755 3.84931,-141.30935 8.788,-211.22573 0.39688,-5.61852 3.65291,-11.21889 7.21871,-15.37899 3.96677,-4.6279 10.38099,-7.15475 15.37899,-10.985 6.19623,-4.74851 13.48005,-8.81792 18.2037,-14.75128 3.85511,-4.8424 6.78245,-11.37046 7.53257,-17.57599 1.5515,-12.83512 -1.81555,-26.54571 -0.62771,-39.54597 0.6953,-7.60968 2.98911,-15.4383 6.27713,-22.28385 3.09374,-6.44106 8.02952,-12.20513 12.86814,-17.57599 5.62328,-6.24184 11.85659,-12.1465 18.51756,-17.262129 6.4164,-4.927794 13.25011,-9.909664 20.71456,-12.868135 9.69306,-3.841763 20.37398,-6.460305 30.75798,-7.532567 8.86589,-0.915499 18.19797,-0.365767 26.9917,1.569284 119.57376,26.312077 238.59909,56.072557 358.11079,83.172097 108.87155,24.68686 218.893875,45.80086 327.038956,72.1871 9.342042,2.27936 18.139941,7.79615 25.422414,13.80971 6.527233,5.38991 12.498073,12.58492 16.006705,20.4007 11.661125,25.97615 19.481915,54.05525 29.502555,80.97509 2.32441,6.24438 3.92301,13.1328 7.53257,18.51756 2.77219,4.13557 7.26973,7.47713 11.6127,10.04343 4.8635,2.87389 10.3708,5.29585 16.00671,6.27714 62.26181,10.84065 125.16677,19.19634 187.68646,29.18869 34.35749,5.49126 69.11812,9.9576 102.94508,17.26214 6.86982,1.48346 13.51722,5.0228 19.14528,9.10185 5.77541,4.18585 11.11026,9.73613 15.06513,15.69285 4.51927,6.8068 7.88904,14.69693 10.35728,22.5977 18.87404,60.41542 37.65557,121.32726 53.66954,182.35089 1.66664,6.35099 0.31373,13.29366 -0.62771,19.77299 -0.83708,5.76109 -2.11319,11.80981 -4.70786,16.94828 -2.7409,5.42805 -7.05635,10.29121 -11.29885,14.75127 -3.91778,4.1187 -8.19387,8.6871 -13.18199,10.985 -4.32297,1.99148 -9.81651,1.79502 -14.75128,1.88314 -6.78255,0.12112 -13.90318,0.75485 -20.4007,-1.25543 C 379.04574,689.98453 272.45267,653.90215 165.71648,618.92572 99.412868,597.19866 33.279922,574.95227 -32.954981,553.01576 z" id="path3773" sodipodi:nodetypes="cssssssssssssssssssssssssssssssssssssssssssssssssssssssssssssssssssssssssssssssssssssss" />
    <path style="fill:none" d="m -214.73675,174.07051 c -63.12737,-14.03797 -77.33603,66.79344 -17.99532,79.86675" id="path3775" sodipodi:nodetypes="cs" />
    <use x="0" y="0" xlink:href="#path3775" id="use3777" style="stroke:#c8c8c8;stroke-width:10;stroke-miterlimit:4;stroke-opacity:1;stroke-dasharray:none" width="744.09448" height="1052.3622" />
    <g id="g3227" transform="translate(-1928.6039,-816.33202)">
      <path style="fill:black;fill-opacity:1;fill-rule:evenodd;stroke:white;stroke-width:1.5;stroke-linecap:butt;stroke-linejoin:miter;stroke-miterlimit:4;stroke-opacity:1;stroke-dasharray:none" d="m 1192.293,1455.6875 0,19 0,2 2,0 356,0 2,0 0,-2 0,-19 -4,0 0,17 -85.3438,0 0,-7.5937 -4,0 0,7.5937 -84.9374,0 0,-13.0625 -4,0 0,13.0625 -85.0626,0 0,-7.5937 -4,0 0,7.5937 -84.6562,0 0,-17 -4,0 z" id="path2423" />
      <use style="stroke:white;stroke-width:5;stroke-miterlimit:4;stroke-opacity:1;stroke-dasharray:none;filter:url(#filter5277)" id="use2445" xlink:href="#text2441" y="0" x="0" width="744.09448" height="1052.3622" />
      <text id="text2441" y="1447.7952" x="1372.1074" style="font-size:20px;font-style:normal;font-weight:normal;text-align:center;writing-mode:lr-tb;text-anchor:middle;fill:black;fill-opacity:1;font-family:Times New Roman" xml:space="preserve"><tspan y="1447.7952" x="1372.1074" id="tspan2443" sodipodi:role="line">893 ft (292 m)</tspan></text>
    </g>
    <g style="display:inline" id="g3804" transform="matrix(1.9555278,0,0,1.9555278,-3736.2106,-1611.6775)" clip-path="none">
      <text id="text3180" y="967.81134" x="2073.4658" style="font-size:64px;font-style:normal;font-weight:normal;fill:black;fill-opacity:1;stroke:white;stroke-width:0.51137096px;stroke-linecap:butt;stroke-linejoin:miter;stroke-opacity:1;font-family:Times New Roman" xml:space="preserve" inkscape:export-xdpi="90.015755" inkscape:export-ydpi="90.015755"><tspan y="967.81134" x="2073.4658" id="tspan3182" sodipodi:role="line" style="stroke-width:0.51137096">N</tspan></text>
      <path id="path2745" d="m 2151.2587,920.07778 11.2806,53.59079 -10.9113,-11.31106 -10.7127,11.4999 10.3434,-53.77963 z" style="fill:red;fill-opacity:1;fill-rule:nonzero;stroke:white;stroke-width:0.51137096;stroke-linecap:round;stroke-linejoin:round;stroke-miterlimit:4;stroke-opacity:1;stroke-dasharray:none;stroke-dashoffset:0" inkscape:export-filename="D:\Images\Race Tracks\text3180.png" inkscape:export-xdpi="90.015755" inkscape:export-ydpi="90.015755" inkscape:transform-center-x="-0.072429957" inkscape:transform-center-y="-7.4455574" sodipodi:nodetypes="ccccc" />
    </g>
    <g transform="translate(453.99043,-326.44646)" id="g5281">
      <use height="1052.3622" width="744.09448" style="stroke:white;stroke-width:5;stroke-miterlimit:4;stroke-opacity:1;stroke-dasharray:none;filter:url(#filter5277)" id="use5275" xlink:href="#text5269" y="0" x="0" />
      <text sodipodi:linespacing="100%" id="text5269" y="445.24582" x="-429.14511" style="font-size:32px;font-style:normal;font-variant:normal;font-weight:normal;font-stretch:normal;text-align:center;line-height:100%;writing-mode:lr-tb;text-anchor:middle;color:black;fill:black;fill-opacity:1;fill-rule:nonzero;display:inline;overflow:visible;enable-background:accumulate;font-family:Times New Roman;-inkscape-font-specification:Times New Roman" xml:space="preserve"><tspan y="445.24582" x="-429.14511" id="tspan5271" sodipodi:role="line">Length of black layout:</tspan><tspan id="tspan5273" y="477.24582" x="-429.14511" sodipodi:role="line">2.2765 mi (3.6636 km)</tspan></text>
    </g>
    <text xml:space="preserve" style="font-size:32px;font-style:normal;font-variant:normal;font-weight:normal;font-stretch:normal;text-align:center;line-height:100%;writing-mode:lr-tb;text-anchor:middle;color:black;fill:black;fill-opacity:1;fill-rule:nonzero;display:inline;overflow:visible;enable-background:accumulate;font-family:Times New Roman;-inkscape-font-specification:Times New Roman" x="-505.93741" y="419.62653" id="text4165" sodipodi:linespacing="100%"><tspan sodipodi:role="line" id="tspan4167" x="-505.93741" y="419.62653">Hotel</tspan></text>
    <text xml:space="preserve" style="font-size:32px;font-style:normal;font-variant:normal;font-weight:normal;font-stretch:normal;text-align:center;line-height:100%;writing-mode:lr-tb;text-anchor:middle;color:black;fill:black;fill-opacity:1;fill-rule:nonzero;display:inline;overflow:visible;enable-background:accumulate;font-family:Times New Roman;-inkscape-font-specification:Times New Roman" x="-163.20561" y="339.27914" id="text4169" sodipodi:linespacing="100%"><tspan sodipodi:role="line" id="tspan4171" x="-163.20561" y="339.27914">Hasseröder</tspan></text>
    <text xml:space="preserve" style="font-size:32px;font-style:normal;font-variant:normal;font-weight:normal;font-stretch:normal;text-align:center;line-height:100%;writing-mode:lr-tb;text-anchor:middle;color:black;fill:black;fill-opacity:1;fill-rule:nonzero;display:inline;overflow:visible;enable-background:accumulate;font-family:Times New Roman;-inkscape-font-specification:Times New Roman" x="-612.64874" y="287.80664" id="text4173" sodipodi:linespacing="100%"><tspan sodipodi:role="line" id="tspan4175" x="-612.64874" y="287.80664">Triple</tspan></text>
    <text xml:space="preserve" style="font-size:32px;font-style:normal;font-variant:normal;font-weight:normal;font-stretch:normal;text-align:start;line-height:100%;writing-mode:lr-tb;text-anchor:start;color:black;fill:black;fill-opacity:1;fill-rule:nonzero;display:inline;overflow:visible;enable-background:accumulate;font-family:Times New Roman;-inkscape-font-specification:Times New Roman" x="-720.61554" y="145.94328" id="text4177" sodipodi:linespacing="100%"><tspan sodipodi:role="line" id="tspan4179" x="-720.61554" y="145.94328">McDonald's</tspan></text>
    <text xml:space="preserve" style="font-size:32px;font-style:normal;font-variant:normal;font-weight:normal;font-stretch:normal;text-align:start;line-height:100%;writing-mode:lr-tb;text-anchor:start;color:black;fill:black;fill-opacity:1;fill-rule:nonzero;display:inline;overflow:visible;enable-background:accumulate;font-family:Times New Roman;-inkscape-font-specification:Times New Roman" x="95.412514" y="225.03523" id="text4181" sodipodi:linespacing="100%"><tspan sodipodi:role="line" id="tspan4183" x="95.412514" y="225.03523">Shell Kurve</tspan></text>
    <text xml:space="preserve" style="font-size:32px;font-style:normal;font-variant:normal;font-weight:normal;font-stretch:normal;text-align:start;line-height:100%;writing-mode:lr-tb;text-anchor:start;color:black;fill:black;fill-opacity:1;fill-rule:nonzero;display:inline;overflow:visible;enable-background:accumulate;font-family:Times New Roman;-inkscape-font-specification:Times New Roman" x="150.65134" y="356.85516" id="text4185" sodipodi:linespacing="100%"><tspan sodipodi:role="line" id="tspan4187" x="150.65134" y="356.85516">Amman Kurve</tspan></text>
    <text xml:space="preserve" style="font-size:32px;font-style:normal;font-variant:normal;font-weight:normal;font-stretch:normal;text-align:end;line-height:100%;writing-mode:lr-tb;text-anchor:end;color:black;fill:black;fill-opacity:1;fill-rule:nonzero;display:inline;overflow:visible;enable-background:accumulate;font-family:Times New Roman;-inkscape-font-specification:Times New Roman" x="465.76373" y="471.09909" id="text4189" sodipodi:linespacing="100%"><tspan sodipodi:role="line" id="tspan4191" x="465.76373" y="471.09909">Bauer Kurve</tspan></text>
    <text xml:space="preserve" style="font-size:32px;font-style:normal;font-variant:normal;font-weight:normal;font-stretch:normal;text-align:end;line-height:100%;writing-mode:lr-tb;text-anchor:end;color:black;fill:black;fill-opacity:1;fill-rule:nonzero;display:inline;overflow:visible;enable-background:accumulate;font-family:Times New Roman;-inkscape-font-specification:Times New Roman" x="526.02429" y="661.92413" id="text4193" sodipodi:linespacing="100%"><tspan sodipodi:role="line" id="tspan4195" x="526.02429" y="661.92413">Zeppelin</tspan><tspan sodipodi:role="line" x="526.02429" y="693.92413" id="tspan4197">Kurve</tspan></text>
    <use x="0" y="0" xlink:href="#path4217" id="use4221" style="stroke:#c8c8c8;stroke-width:5;stroke-miterlimit:4;stroke-opacity:1;stroke-dasharray:none" width="744.09448" height="1052.3622" />
    <use x="0" y="0" xlink:href="#path3773" id="use3779" style="stroke:black;stroke-width:10;stroke-miterlimit:4;stroke-dasharray:none" width="744.09448" height="1052.3622" />
    <path style="fill:none" d="m 550.68165,648.55578 c 1.96161,7.42795 5.06757,15.07929 5.47289,22.54866 0.32701,6.02648 -0.32666,11.90313 -2.19701,17.65446 -2.31441,7.11681 -5.46602,14.509 -10.04342,20.4007 -5.98912,7.70877 -13.79768,14.46446 -21.65613,20.4007 -6.68359,5.04876 -14.3164,9.14604 -21.96999,12.55428 -5.73764,2.55504 -11.99444,4.5419 -18.2037,5.33557 -7.70506,0.98485 -15.78153,0.81375 -23.53927,0 -7.20278,-0.75554 -14.49172,-2.26664 -21.34228,-4.70786 C 406.18123,731.68766 375.59116,719.13137 344.9288,706.9626 288.86202,684.71173 233.21154,661.36581 177.01532,639.48335 164.16301,634.47873 150.89743,630.58384 137.7832,626.30136 53.183301,598.67505 -31.381148,570.92622 -116.12708,543.75698 c -27.51024,-8.81969 -55.31706,-16.70104 -82.85824,-25.42241 -28.95307,-9.16848 -57.65511,-19.13199 -86.62452,-28.24713 -28.88489,-9.08856 -57.73481,-18.93349 -86.93837,-26.36398 -6.15766,-1.56675 -12.86435,-1.43817 -19.14528,-0.62772 -9.93501,1.28193 -19.82147,4.06233 -29.50255,6.90486 -14.90438,4.37618 -27.73711,10.65805 -44.25383,14.75127" id="path4215" sodipodi:nodetypes="cssssssssssssssssss" />
    <path style="fill:none" d="m -201.10385,517.66762 c -15.27437,-5.02171 -31.85603,-10.92042 -46.52929,-17.37984 -23.82653,-10.48885 -45.82086,-21.34666 -69.04853,-33.26883 -12.23817,-6.28154 -23.59813,-11.65194 -37.72169,-16.98751" id="path4217" sodipodi:nodetypes="csss" />
    <use x="0" y="0" xlink:href="#path4215" id="use4223" style="stroke:black;stroke-width:5;stroke-miterlimit:4;stroke-dasharray:none" width="744.09448" height="1052.3622" />
    <g id="g3922" transform="translate(118.66613,-34.116992)">
      <use style="stroke:white;stroke-width:5;stroke-miterlimit:4;stroke-opacity:1;stroke-dasharray:none;filter:url(#filter5277-1)" id="use3920" xlink:href="#text3116" y="0" x="0" width="1276.099" height="849.69269" />
      <text sodipodi:linespacing="100%" id="text3116" y="722.44769" x="-254.32448" style="font-size:16px;font-style:normal;font-variant:normal;font-weight:normal;font-stretch:normal;text-align:center;line-height:100%;writing-mode:lr-tb;text-anchor:middle;color:black;fill:black;fill-opacity:1;fill-rule:nonzero;display:inline;overflow:visible;enable-background:accumulate;font-family:Times New Roman;-inkscape-font-specification:Times New Roman" xml:space="preserve"><tspan y="722.44769" x="-254.32448" id="tspan3118" sodipodi:role="line">Map based on data from March 4th, 2000</tspan></text>
    </g>
    <g style="display:inline" transform="matrix(-0.60774981,-1.1362901,-1.1362901,0.60774981,1981.3553,1751.7118)" id="g4801" clip-path="url(#clipPath9716)">
      <path clip-path="url(#clipPath3494)" transform="matrix(-0.358939,0.3679125,-1.1151124,-1.0879142,3617.8586,1699.8985)" d="m 1695.937,1398.5206 -24.4812,0 12.2406,-21.2013 12.2406,21.2013 z" inkscape:randomized="0" inkscape:rounded="0" inkscape:flatsided="true" sodipodi:arg2="1.5707963" sodipodi:arg1="0.52359878" sodipodi:r2="7.0671172" sodipodi:r1="14.134234" sodipodi:cy="1391.4535" sodipodi:cx="1683.6964" sodipodi:sides="3" id="path3463" style="fill:red;fill-opacity:1;stroke:white;stroke-width:0.867217;stroke-linecap:round;stroke-linejoin:miter;stroke-miterlimit:4;stroke-opacity:1;stroke-dasharray:none;stroke-dashoffset:0;display:inline" sodipodi:type="star" />
      <rect clip-path="url(#clipPath3490)" ry="0" transform="matrix(-0.7183395,-0.6956928,0.6956928,-0.7183395,0,0)" y="376.01733" x="-1620.8837" height="53.588943" width="13.041035" id="rect3457" style="fill:url(#pattern4264);fill-opacity:1;stroke:black;stroke-width:0.77603012;stroke-linecap:round;stroke-linejoin:round;stroke-miterlimit:4;stroke-opacity:1;stroke-dasharray:none;stroke-dashoffset:0;display:inline" />
      <rect style="fill:url(#pattern4256);stroke:none" width="0" height="0" x="1593.7246" y="910.57043" id="rect4262" />
    </g>
  </g>
</svg>
